<svg xmlns="http://www.w3.org/2000/svg" width="900" height="350">
<text x="450" y="25" text-anchor="middle" font-size="16" font-weight="bold">字段覆盖率热力图（-1=不适用）</text>
<text x="166" y="50" text-anchor="middle" font-size="10" font-weight="bold">id</text>
<text x="198" y="50" text-anchor="middle" font-size="10" font-weight="bold">name</text>
<text x="230" y="50" text-anchor="middle" font-size="10" font-weight="bold">zone_ids</text>
<text x="262" y="50" text-anchor="middle" font-size="10" font-weight="bold">tags</text>
<text x="294" y="50" text-anchor="middle" font-size="10" font-weight="bold">location</text>
<text x="326" y="50" text-anchor="middle" font-size="10" font-weight="bold">price</text>
<text x="358" y="50" text-anchor="middle" font-size="10" font-weight="bold">average_price</text>
<text x="390" y="50" text-anchor="middle" font-size="10" font-weight="bold">duration_minutes</text>
<text x="422" y="50" text-anchor="middle" font-size="10" font-weight="bold">indoor</text>
<text x="454" y="50" text-anchor="middle" font-size="10" font-weight="bold">water_splash</text>
<text x="486" y="50" text-anchor="middle" font-size="10" font-weight="bold">single_rider</text>
<text x="518" y="50" text-anchor="middle" font-size="10" font-weight="bold">language</text>
<text x="550" y="50" text-anchor="middle" font-size="10" font-weight="bold">is_seasonal</text>
<text x="582" y="50" text-anchor="middle" font-size="10" font-weight="bold">severity</text>
<text x="614" y="50" text-anchor="middle" font-size="10" font-weight="bold">alternative</text>
<text x="646" y="50" text-anchor="middle" font-size="10" font-weight="bold">review_ids</text>
<text x="678" y="50" text-anchor="middle" font-size="10" font-weight="bold">opinion_ids</text>
<text x="710" y="50" text-anchor="middle" font-size="10" font-weight="bold">warning_ids</text>
<text x="742" y="50" text-anchor="middle" font-size="10" font-weight="bold">attraction_ids</text>
<text x="774" y="50" text-anchor="middle" font-size="10" font-weight="bold">restaurant_ids</text>
<text x="806" y="50" text-anchor="middle" font-size="10" font-weight="bold">show_ids</text>
<text x="838" y="50" text-anchor="middle" font-size="10" font-weight="bold">content</text>
<text x="870" y="50" text-anchor="middle" font-size="10" font-weight="bold">description</text>
<text x="145" y="82" text-anchor="end" font-size="11">attractions</text>
<rect x="150" y="65" width="30" height="25" fill="#4E79A7" rx="3"/>
<text x="166" y="82" text-anchor="middle" font-size="10" fill="white" font-weight="bold">100%</text>
<rect x="182" y="65" width="30" height="25" fill="#4E79A7" rx="3"/>
<text x="198" y="82" text-anchor="middle" font-size="10" fill="white" font-weight="bold">100%</text>
<rect x="214" y="65" width="30" height="25" fill="#4E79A7" rx="3"/>
<text x="230" y="82" text-anchor="middle" font-size="10" fill="white" font-weight="bold">100%</text>
<rect x="246" y="65" width="30" height="25" fill="#4E79A7" rx="3"/>
<text x="262" y="82" text-anchor="middle" font-size="10" fill="white" font-weight="bold">100%</text>
<rect x="278" y="65" width="30" height="25" fill="#D9D9D9" rx="3"/>
<text x="294" y="82" text-anchor="middle" font-size="10" fill="white" font-weight="bold">-1%</text>
<rect x="310" y="65" width="30" height="25" fill="#D9D9D9" rx="3"/>
<text x="326" y="82" text-anchor="middle" font-size="10" fill="white" font-weight="bold">-1%</text>
<rect x="342" y="65" width="30" height="25" fill="#D9D9D9" rx="3"/>
<text x="358" y="82" text-anchor="middle" font-size="10" fill="white" font-weight="bold">-1%</text>
<rect x="374" y="65" width="30" height="25" fill="#4E79A7" rx="3"/>
<text x="390" y="82" text-anchor="middle" font-size="10" fill="white" font-weight="bold">100%</text>
<rect x="406" y="65" width="30" height="25" fill="#4E79A7" rx="3"/>
<text x="422" y="82" text-anchor="middle" font-size="10" fill="white" font-weight="bold">100%</text>
<rect x="438" y="65" width="30" height="25" fill="#4E79A7" rx="3"/>
<text x="454" y="82" text-anchor="middle" font-size="10" fill="white" font-weight="bold">100%</text>
<rect x="470" y="65" width="30" height="25" fill="#4E79A7" rx="3"/>
<text x="486" y="82" text-anchor="middle" font-size="10" fill="white" font-weight="bold">100%</text>
<rect x="502" y="65" width="30" height="25" fill="#D9D9D9" rx="3"/>
<text x="518" y="82" text-anchor="middle" font-size="10" fill="white" font-weight="bold">-1%</text>
<rect x="534" y="65" width="30" height="25" fill="#D9D9D9" rx="3"/>
<text x="550" y="82" text-anchor="middle" font-size="10" fill="white" font-weight="bold">-1%</text>
<rect x="566" y="65" width="30" height="25" fill="#D9D9D9" rx="3"/>
<text x="582" y="82" text-anchor="middle" font-size="10" fill="white" font-weight="bold">-1%</text>
<rect x="598" y="65" width="30" height="25" fill="#D9D9D9" rx="3"/>
<text x="614" y="82" text-anchor="middle" font-size="10" fill="white" font-weight="bold">-1%</text>
<rect x="630" y="65" width="30" height="25" fill="#4E79A7" rx="3"/>
<text x="646" y="82" text-anchor="middle" font-size="10" fill="white" font-weight="bold">100%</text>
<rect x="662" y="65" width="30" height="25" fill="#D9D9D9" rx="3"/>
<text x="678" y="82" text-anchor="middle" font-size="10" fill="white" font-weight="bold">12%</text>
<rect x="694" y="65" width="30" height="25" fill="#E15759" rx="3"/>
<text x="710" y="82" text-anchor="middle" font-size="10" fill="white" font-weight="bold">41%</text>
<rect x="726" y="65" width="30" height="25" fill="#D9D9D9" rx="3"/>
<text x="742" y="82" text-anchor="middle" font-size="10" fill="white" font-weight="bold">-1%</text>
<rect x="758" y="65" width="30" height="25" fill="#D9D9D9" rx="3"/>
<text x="774" y="82" text-anchor="middle" font-size="10" fill="white" font-weight="bold">-1%</text>
<rect x="790" y="65" width="30" height="25" fill="#D9D9D9" rx="3"/>
<text x="806" y="82" text-anchor="middle" font-size="10" fill="white" font-weight="bold">-1%</text>
<rect x="822" y="65" width="30" height="25" fill="#D9D9D9" rx="3"/>
<text x="838" y="82" text-anchor="middle" font-size="10" fill="white" font-weight="bold">-1%</text>
<rect x="854" y="65" width="30" height="25" fill="#D9D9D9" rx="3"/>
<text x="870" y="82" text-anchor="middle" font-size="10" fill="white" font-weight="bold">-1%</text>
<text x="145" y="109" text-anchor="end" font-size="11">shows</text>
<rect x="150" y="92" width="30" height="25" fill="#4E79A7" rx="3"/>
<text x="166" y="109" text-anchor="middle" font-size="10" fill="white" font-weight="bold">100%</text>
<rect x="182" y="92" width="30" height="25" fill="#4E79A7" rx="3"/>
<text x="198" y="109" text-anchor="middle" font-size="10" fill="white" font-weight="bold">100%</text>
<rect x="214" y="92" width="30" height="25" fill="#4E79A7" rx="3"/>
<text x="230" y="109" text-anchor="middle" font-size="10" fill="white" font-weight="bold">100%</text>
<rect x="246" y="92" width="30" height="25" fill="#4E79A7" rx="3"/>
<text x="262" y="109" text-anchor="middle" font-size="10" fill="white" font-weight="bold">100%</text>
<rect x="278" y="92" width="30" height="25" fill="#4E79A7" rx="3"/>
<text x="294" y="109" text-anchor="middle" font-size="10" fill="white" font-weight="bold">100%</text>
<rect x="310" y="92" width="30" height="25" fill="#D9D9D9" rx="3"/>
<text x="326" y="109" text-anchor="middle" font-size="10" fill="white" font-weight="bold">-1%</text>
<rect x="342" y="92" width="30" height="25" fill="#D9D9D9" rx="3"/>
<text x="358" y="109" text-anchor="middle" font-size="10" fill="white" font-weight="bold">-1%</text>
<rect x="374" y="92" width="30" height="25" fill="#D9D9D9" rx="3"/>
<text x="390" y="109" text-anchor="middle" font-size="10" fill="white" font-weight="bold">-1%</text>
<rect x="406" y="92" width="30" height="25" fill="#D9D9D9" rx="3"/>
<text x="422" y="109" text-anchor="middle" font-size="10" fill="white" font-weight="bold">-1%</text>
<rect x="438" y="92" width="30" height="25" fill="#D9D9D9" rx="3"/>
<text x="454" y="109" text-anchor="middle" font-size="10" fill="white" font-weight="bold">-1%</text>
<rect x="470" y="92" width="30" height="25" fill="#D9D9D9" rx="3"/>
<text x="486" y="109" text-anchor="middle" font-size="10" fill="white" font-weight="bold">-1%</text>
<rect x="502" y="92" width="30" height="25" fill="#4E79A7" rx="3"/>
<text x="518" y="109" text-anchor="middle" font-size="10" fill="white" font-weight="bold">100%</text>
<rect x="534" y="92" width="30" height="25" fill="#4E79A7" rx="3"/>
<text x="550" y="109" text-anchor="middle" font-size="10" fill="white" font-weight="bold">100%</text>
<rect x="566" y="92" width="30" height="25" fill="#D9D9D9" rx="3"/>
<text x="582" y="109" text-anchor="middle" font-size="10" fill="white" font-weight="bold">-1%</text>
<rect x="598" y="92" width="30" height="25" fill="#D9D9D9" rx="3"/>
<text x="614" y="109" text-anchor="middle" font-size="10" fill="white" font-weight="bold">-1%</text>
<rect x="630" y="92" width="30" height="25" fill="#D9D9D9" rx="3"/>
<text x="646" y="109" text-anchor="middle" font-size="10" fill="white" font-weight="bold">-1%</text>
<rect x="662" y="92" width="30" height="25" fill="#D9D9D9" rx="3"/>
<text x="678" y="109" text-anchor="middle" font-size="10" fill="white" font-weight="bold">20%</text>
<rect x="694" y="92" width="30" height="25" fill="#D9D9D9" rx="3"/>
<text x="710" y="109" text-anchor="middle" font-size="10" fill="white" font-weight="bold">13%</text>
<rect x="726" y="92" width="30" height="25" fill="#D9D9D9" rx="3"/>
<text x="742" y="109" text-anchor="middle" font-size="10" fill="white" font-weight="bold">-1%</text>
<rect x="758" y="92" width="30" height="25" fill="#D9D9D9" rx="3"/>
<text x="774" y="109" text-anchor="middle" font-size="10" fill="white" font-weight="bold">-1%</text>
<rect x="790" y="92" width="30" height="25" fill="#D9D9D9" rx="3"/>
<text x="806" y="109" text-anchor="middle" font-size="10" fill="white" font-weight="bold">-1%</text>
<rect x="822" y="92" width="30" height="25" fill="#D9D9D9" rx="3"/>
<text x="838" y="109" text-anchor="middle" font-size="10" fill="white" font-weight="bold">-1%</text>
<rect x="854" y="92" width="30" height="25" fill="#D9D9D9" rx="3"/>
<text x="870" y="109" text-anchor="middle" font-size="10" fill="white" font-weight="bold">-1%</text>
<text x="145" y="136" text-anchor="end" font-size="11">restaurants</text>
<rect x="150" y="119" width="30" height="25" fill="#4E79A7" rx="3"/>
<text x="166" y="136" text-anchor="middle" font-size="10" fill="white" font-weight="bold">100%</text>
<rect x="182" y="119" width="30" height="25" fill="#4E79A7" rx="3"/>
<text x="198" y="136" text-anchor="middle" font-size="10" fill="white" font-weight="bold">100%</text>
<rect x="214" y="119" width="30" height="25" fill="#4E79A7" rx="3"/>
<text x="230" y="136" text-anchor="middle" font-size="10" fill="white" font-weight="bold">100%</text>
<rect x="246" y="119" width="30" height="25" fill="#4E79A7" rx="3"/>
<text x="262" y="136" text-anchor="middle" font-size="10" fill="white" font-weight="bold">100%</text>
<rect x="278" y="119" width="30" height="25" fill="#4E79A7" rx="3"/>
<text x="294" y="136" text-anchor="middle" font-size="10" fill="white" font-weight="bold">100%</text>
<rect x="310" y="119" width="30" height="25" fill="#D9D9D9" rx="3"/>
<text x="326" y="136" text-anchor="middle" font-size="10" fill="white" font-weight="bold">-1%</text>
<rect x="342" y="119" width="30" height="25" fill="#4E79A7" rx="3"/>
<text x="358" y="136" text-anchor="middle" font-size="10" fill="white" font-weight="bold">100%</text>
<rect x="374" y="119" width="30" height="25" fill="#D9D9D9" rx="3"/>
<text x="390" y="136" text-anchor="middle" font-size="10" fill="white" font-weight="bold">-1%</text>
<rect x="406" y="119" width="30" height="25" fill="#4E79A7" rx="3"/>
<text x="422" y="136" text-anchor="middle" font-size="10" fill="white" font-weight="bold">100%</text>
<rect x="438" y="119" width="30" height="25" fill="#D9D9D9" rx="3"/>
<text x="454" y="136" text-anchor="middle" font-size="10" fill="white" font-weight="bold">-1%</text>
<rect x="470" y="119" width="30" height="25" fill="#D9D9D9" rx="3"/>
<text x="486" y="136" text-anchor="middle" font-size="10" fill="white" font-weight="bold">-1%</text>
<rect x="502" y="119" width="30" height="25" fill="#D9D9D9" rx="3"/>
<text x="518" y="136" text-anchor="middle" font-size="10" fill="white" font-weight="bold">-1%</text>
<rect x="534" y="119" width="30" height="25" fill="#D9D9D9" rx="3"/>
<text x="550" y="136" text-anchor="middle" font-size="10" fill="white" font-weight="bold">-1%</text>
<rect x="566" y="119" width="30" height="25" fill="#D9D9D9" rx="3"/>
<text x="582" y="136" text-anchor="middle" font-size="10" fill="white" font-weight="bold">-1%</text>
<rect x="598" y="119" width="30" height="25" fill="#D9D9D9" rx="3"/>
<text x="614" y="136" text-anchor="middle" font-size="10" fill="white" font-weight="bold">-1%</text>
<rect x="630" y="119" width="30" height="25" fill="#4E79A7" rx="3"/>
<text x="646" y="136" text-anchor="middle" font-size="10" fill="white" font-weight="bold">93%</text>
<rect x="662" y="119" width="30" height="25" fill="#D9D9D9" rx="3"/>
<text x="678" y="136" text-anchor="middle" font-size="10" fill="white" font-weight="bold">13%</text>
<rect x="694" y="119" width="30" height="25" fill="#E15759" rx="3"/>
<text x="710" y="136" text-anchor="middle" font-size="10" fill="white" font-weight="bold">47%</text>
<rect x="726" y="119" width="30" height="25" fill="#D9D9D9" rx="3"/>
<text x="742" y="136" text-anchor="middle" font-size="10" fill="white" font-weight="bold">-1%</text>
<rect x="758" y="119" width="30" height="25" fill="#D9D9D9" rx="3"/>
<text x="774" y="136" text-anchor="middle" font-size="10" fill="white" font-weight="bold">-1%</text>
<rect x="790" y="119" width="30" height="25" fill="#D9D9D9" rx="3"/>
<text x="806" y="136" text-anchor="middle" font-size="10" fill="white" font-weight="bold">-1%</text>
<rect x="822" y="119" width="30" height="25" fill="#D9D9D9" rx="3"/>
<text x="838" y="136" text-anchor="middle" font-size="10" fill="white" font-weight="bold">-1%</text>
<rect x="854" y="119" width="30" height="25" fill="#D9D9D9" rx="3"/>
<text x="870" y="136" text-anchor="middle" font-size="10" fill="white" font-weight="bold">-1%</text>
<text x="145" y="163" text-anchor="end" font-size="11">dishes</text>
<rect x="150" y="146" width="30" height="25" fill="#4E79A7" rx="3"/>
<text x="166" y="163" text-anchor="middle" font-size="10" fill="white" font-weight="bold">100%</text>
<rect x="182" y="146" width="30" height="25" fill="#4E79A7" rx="3"/>
<text x="198" y="163" text-anchor="middle" font-size="10" fill="white" font-weight="bold">100%</text>
<rect x="214" y="146" width="30" height="25" fill="#4E79A7" rx="3"/>
<text x="230" y="163" text-anchor="middle" font-size="10" fill="white" font-weight="bold">100%</text>
<rect x="246" y="146" width="30" height="25" fill="#4E79A7" rx="3"/>
<text x="262" y="163" text-anchor="middle" font-size="10" fill="white" font-weight="bold">100%</text>
<rect x="278" y="146" width="30" height="25" fill="#D9D9D9" rx="3"/>
<text x="294" y="163" text-anchor="middle" font-size="10" fill="white" font-weight="bold">-1%</text>
<rect x="310" y="146" width="30" height="25" fill="#4E79A7" rx="3"/>
<text x="326" y="163" text-anchor="middle" font-size="10" fill="white" font-weight="bold">100%</text>
<rect x="342" y="146" width="30" height="25" fill="#D9D9D9" rx="3"/>
<text x="358" y="163" text-anchor="middle" font-size="10" fill="white" font-weight="bold">-1%</text>
<rect x="374" y="146" width="30" height="25" fill="#D9D9D9" rx="3"/>
<text x="390" y="163" text-anchor="middle" font-size="10" fill="white" font-weight="bold">-1%</text>
<rect x="406" y="146" width="30" height="25" fill="#D9D9D9" rx="3"/>
<text x="422" y="163" text-anchor="middle" font-size="10" fill="white" font-weight="bold">-1%</text>
<rect x="438" y="146" width="30" height="25" fill="#D9D9D9" rx="3"/>
<text x="454" y="163" text-anchor="middle" font-size="10" fill="white" font-weight="bold">-1%</text>
<rect x="470" y="146" width="30" height="25" fill="#D9D9D9" rx="3"/>
<text x="486" y="163" text-anchor="middle" font-size="10" fill="white" font-weight="bold">-1%</text>
<rect x="502" y="146" width="30" height="25" fill="#D9D9D9" rx="3"/>
<text x="518" y="163" text-anchor="middle" font-size="10" fill="white" font-weight="bold">-1%</text>
<rect x="534" y="146" width="30" height="25" fill="#D9D9D9" rx="3"/>
<text x="550" y="163" text-anchor="middle" font-size="10" fill="white" font-weight="bold">-1%</text>
<rect x="566" y="146" width="30" height="25" fill="#D9D9D9" rx="3"/>
<text x="582" y="163" text-anchor="middle" font-size="10" fill="white" font-weight="bold">-1%</text>
<rect x="598" y="146" width="30" height="25" fill="#D9D9D9" rx="3"/>
<text x="614" y="163" text-anchor="middle" font-size="10" fill="white" font-weight="bold">-1%</text>
<rect x="630" y="146" width="30" height="25" fill="#4E79A7" rx="3"/>
<text x="646" y="163" text-anchor="middle" font-size="10" fill="white" font-weight="bold">100%</text>
<rect x="662" y="146" width="30" height="25" fill="#D9D9D9" rx="3"/>
<text x="678" y="163" text-anchor="middle" font-size="10" fill="white" font-weight="bold">15%</text>
<rect x="694" y="146" width="30" height="25" fill="#D9D9D9" rx="3"/>
<text x="710" y="163" text-anchor="middle" font-size="10" fill="white" font-weight="bold">-1%</text>
<rect x="726" y="146" width="30" height="25" fill="#D9D9D9" rx="3"/>
<text x="742" y="163" text-anchor="middle" font-size="10" fill="white" font-weight="bold">-1%</text>
<rect x="758" y="146" width="30" height="25" fill="#4E79A7" rx="3"/>
<text x="774" y="163" text-anchor="middle" font-size="10" fill="white" font-weight="bold">100%</text>
<rect x="790" y="146" width="30" height="25" fill="#D9D9D9" rx="3"/>
<text x="806" y="163" text-anchor="middle" font-size="10" fill="white" font-weight="bold">-1%</text>
<rect x="822" y="146" width="30" height="25" fill="#D9D9D9" rx="3"/>
<text x="838" y="163" text-anchor="middle" font-size="10" fill="white" font-weight="bold">-1%</text>
<rect x="854" y="146" width="30" height="25" fill="#D9D9D9" rx="3"/>
<text x="870" y="163" text-anchor="middle" font-size="10" fill="white" font-weight="bold">-1%</text>
<text x="145" y="190" text-anchor="end" font-size="11">tips</text>
<rect x="150" y="173" width="30" height="25" fill="#4E79A7" rx="3"/>
<text x="166" y="190" text-anchor="middle" font-size="10" fill="white" font-weight="bold">100%</text>
<rect x="182" y="173" width="30" height="25" fill="#D9D9D9" rx="3"/>
<text x="198" y="190" text-anchor="middle" font-size="10" fill="white" font-weight="bold">-1%</text>
<rect x="214" y="173" width="30" height="25" fill="#D9D9D9" rx="3"/>
<text x="230" y="190" text-anchor="middle" font-size="10" fill="white" font-weight="bold">-1%</text>
<rect x="246" y="173" width="30" height="25" fill="#4E79A7" rx="3"/>
<text x="262" y="190" text-anchor="middle" font-size="10" fill="white" font-weight="bold">100%</text>
<rect x="278" y="173" width="30" height="25" fill="#D9D9D9" rx="3"/>
<text x="294" y="190" text-anchor="middle" font-size="10" fill="white" font-weight="bold">-1%</text>
<rect x="310" y="173" width="30" height="25" fill="#D9D9D9" rx="3"/>
<text x="326" y="190" text-anchor="middle" font-size="10" fill="white" font-weight="bold">-1%</text>
<rect x="342" y="173" width="30" height="25" fill="#D9D9D9" rx="3"/>
<text x="358" y="190" text-anchor="middle" font-size="10" fill="white" font-weight="bold">-1%</text>
<rect x="374" y="173" width="30" height="25" fill="#D9D9D9" rx="3"/>
<text x="390" y="190" text-anchor="middle" font-size="10" fill="white" font-weight="bold">-1%</text>
<rect x="406" y="173" width="30" height="25" fill="#D9D9D9" rx="3"/>
<text x="422" y="190" text-anchor="middle" font-size="10" fill="white" font-weight="bold">-1%</text>
<rect x="438" y="173" width="30" height="25" fill="#D9D9D9" rx="3"/>
<text x="454" y="190" text-anchor="middle" font-size="10" fill="white" font-weight="bold">-1%</text>
<rect x="470" y="173" width="30" height="25" fill="#D9D9D9" rx="3"/>
<text x="486" y="190" text-anchor="middle" font-size="10" fill="white" font-weight="bold">-1%</text>
<rect x="502" y="173" width="30" height="25" fill="#D9D9D9" rx="3"/>
<text x="518" y="190" text-anchor="middle" font-size="10" fill="white" font-weight="bold">-1%</text>
<rect x="534" y="173" width="30" height="25" fill="#D9D9D9" rx="3"/>
<text x="550" y="190" text-anchor="middle" font-size="10" fill="white" font-weight="bold">-1%</text>
<rect x="566" y="173" width="30" height="25" fill="#D9D9D9" rx="3"/>
<text x="582" y="190" text-anchor="middle" font-size="10" fill="white" font-weight="bold">-1%</text>
<rect x="598" y="173" width="30" height="25" fill="#D9D9D9" rx="3"/>
<text x="614" y="190" text-anchor="middle" font-size="10" fill="white" font-weight="bold">-1%</text>
<rect x="630" y="173" width="30" height="25" fill="#D9D9D9" rx="3"/>
<text x="646" y="190" text-anchor="middle" font-size="10" fill="white" font-weight="bold">-1%</text>
<rect x="662" y="173" width="30" height="25" fill="#D9D9D9" rx="3"/>
<text x="678" y="190" text-anchor="middle" font-size="10" fill="white" font-weight="bold">7%</text>
<rect x="694" y="173" width="30" height="25" fill="#D9D9D9" rx="3"/>
<text x="710" y="190" text-anchor="middle" font-size="10" fill="white" font-weight="bold">-1%</text>
<rect x="726" y="173" width="30" height="25" fill="#D9D9D9" rx="3"/>
<text x="742" y="190" text-anchor="middle" font-size="10" fill="white" font-weight="bold">14%</text>
<rect x="758" y="173" width="30" height="25" fill="#D9D9D9" rx="3"/>
<text x="774" y="190" text-anchor="middle" font-size="10" fill="white" font-weight="bold">-1%</text>
<rect x="790" y="173" width="30" height="25" fill="#D9D9D9" rx="3"/>
<text x="806" y="190" text-anchor="middle" font-size="10" fill="white" font-weight="bold">-1%</text>
<rect x="822" y="173" width="30" height="25" fill="#4E79A7" rx="3"/>
<text x="838" y="190" text-anchor="middle" font-size="10" fill="white" font-weight="bold">100%</text>
<rect x="854" y="173" width="30" height="25" fill="#D9D9D9" rx="3"/>
<text x="870" y="190" text-anchor="middle" font-size="10" fill="white" font-weight="bold">-1%</text>
<text x="145" y="217" text-anchor="end" font-size="11">warnings</text>
<rect x="150" y="200" width="30" height="25" fill="#4E79A7" rx="3"/>
<text x="166" y="217" text-anchor="middle" font-size="10" fill="white" font-weight="bold">100%</text>
<rect x="182" y="200" width="30" height="25" fill="#D9D9D9" rx="3"/>
<text x="198" y="217" text-anchor="middle" font-size="10" fill="white" font-weight="bold">-1%</text>
<rect x="214" y="200" width="30" height="25" fill="#F28E2B" rx="3"/>
<text x="230" y="217" text-anchor="middle" font-size="10" fill="white" font-weight="bold">52%</text>
<rect x="246" y="200" width="30" height="25" fill="#4E79A7" rx="3"/>
<text x="262" y="217" text-anchor="middle" font-size="10" fill="white" font-weight="bold">97%</text>
<rect x="278" y="200" width="30" height="25" fill="#D9D9D9" rx="3"/>
<text x="294" y="217" text-anchor="middle" font-size="10" fill="white" font-weight="bold">-1%</text>
<rect x="310" y="200" width="30" height="25" fill="#D9D9D9" rx="3"/>
<text x="326" y="217" text-anchor="middle" font-size="10" fill="white" font-weight="bold">-1%</text>
<rect x="342" y="200" width="30" height="25" fill="#D9D9D9" rx="3"/>
<text x="358" y="217" text-anchor="middle" font-size="10" fill="white" font-weight="bold">-1%</text>
<rect x="374" y="200" width="30" height="25" fill="#D9D9D9" rx="3"/>
<text x="390" y="217" text-anchor="middle" font-size="10" fill="white" font-weight="bold">-1%</text>
<rect x="406" y="200" width="30" height="25" fill="#D9D9D9" rx="3"/>
<text x="422" y="217" text-anchor="middle" font-size="10" fill="white" font-weight="bold">-1%</text>
<rect x="438" y="200" width="30" height="25" fill="#D9D9D9" rx="3"/>
<text x="454" y="217" text-anchor="middle" font-size="10" fill="white" font-weight="bold">-1%</text>
<rect x="470" y="200" width="30" height="25" fill="#D9D9D9" rx="3"/>
<text x="486" y="217" text-anchor="middle" font-size="10" fill="white" font-weight="bold">-1%</text>
<rect x="502" y="200" width="30" height="25" fill="#D9D9D9" rx="3"/>
<text x="518" y="217" text-anchor="middle" font-size="10" fill="white" font-weight="bold">-1%</text>
<rect x="534" y="200" width="30" height="25" fill="#D9D9D9" rx="3"/>
<text x="550" y="217" text-anchor="middle" font-size="10" fill="white" font-weight="bold">-1%</text>
<rect x="566" y="200" width="30" height="25" fill="#4E79A7" rx="3"/>
<text x="582" y="217" text-anchor="middle" font-size="10" fill="white" font-weight="bold">100%</text>
<rect x="598" y="200" width="30" height="25" fill="#E15759" rx="3"/>
<text x="614" y="217" text-anchor="middle" font-size="10" fill="white" font-weight="bold">42%</text>
<rect x="630" y="200" width="30" height="25" fill="#D9D9D9" rx="3"/>
<text x="646" y="217" text-anchor="middle" font-size="10" fill="white" font-weight="bold">-1%</text>
<rect x="662" y="200" width="30" height="25" fill="#D9D9D9" rx="3"/>
<text x="678" y="217" text-anchor="middle" font-size="10" fill="white" font-weight="bold">-1%</text>
<rect x="694" y="200" width="30" height="25" fill="#D9D9D9" rx="3"/>
<text x="710" y="217" text-anchor="middle" font-size="10" fill="white" font-weight="bold">-1%</text>
<rect x="726" y="200" width="30" height="25" fill="#D9D9D9" rx="3"/>
<text x="742" y="217" text-anchor="middle" font-size="10" fill="white" font-weight="bold">24%</text>
<rect x="758" y="200" width="30" height="25" fill="#D9D9D9" rx="3"/>
<text x="774" y="217" text-anchor="middle" font-size="10" fill="white" font-weight="bold">15%</text>
<rect x="790" y="200" width="30" height="25" fill="#D9D9D9" rx="3"/>
<text x="806" y="217" text-anchor="middle" font-size="10" fill="white" font-weight="bold">6%</text>
<rect x="822" y="200" width="30" height="25" fill="#4E79A7" rx="3"/>
<text x="838" y="217" text-anchor="middle" font-size="10" fill="white" font-weight="bold">100%</text>
<rect x="854" y="200" width="30" height="25" fill="#D9D9D9" rx="3"/>
<text x="870" y="217" text-anchor="middle" font-size="10" fill="white" font-weight="bold">-1%</text>
<text x="145" y="244" text-anchor="end" font-size="11">itineraries</text>
<rect x="150" y="227" width="30" height="25" fill="#4E79A7" rx="3"/>
<text x="166" y="244" text-anchor="middle" font-size="10" fill="white" font-weight="bold">100%</text>
<rect x="182" y="227" width="30" height="25" fill="#4E79A7" rx="3"/>
<text x="198" y="244" text-anchor="middle" font-size="10" fill="white" font-weight="bold">100%</text>
<rect x="214" y="227" width="30" height="25" fill="#D9D9D9" rx="3"/>
<text x="230" y="244" text-anchor="middle" font-size="10" fill="white" font-weight="bold">-1%</text>
<rect x="246" y="227" width="30" height="25" fill="#4E79A7" rx="3"/>
<text x="262" y="244" text-anchor="middle" font-size="10" fill="white" font-weight="bold">100%</text>
<rect x="278" y="227" width="30" height="25" fill="#D9D9D9" rx="3"/>
<text x="294" y="244" text-anchor="middle" font-size="10" fill="white" font-weight="bold">-1%</text>
<rect x="310" y="227" width="30" height="25" fill="#D9D9D9" rx="3"/>
<text x="326" y="244" text-anchor="middle" font-size="10" fill="white" font-weight="bold">-1%</text>
<rect x="342" y="227" width="30" height="25" fill="#D9D9D9" rx="3"/>
<text x="358" y="244" text-anchor="middle" font-size="10" fill="white" font-weight="bold">-1%</text>
<rect x="374" y="227" width="30" height="25" fill="#D9D9D9" rx="3"/>
<text x="390" y="244" text-anchor="middle" font-size="10" fill="white" font-weight="bold">-1%</text>
<rect x="406" y="227" width="30" height="25" fill="#D9D9D9" rx="3"/>
<text x="422" y="244" text-anchor="middle" font-size="10" fill="white" font-weight="bold">-1%</text>
<rect x="438" y="227" width="30" height="25" fill="#D9D9D9" rx="3"/>
<text x="454" y="244" text-anchor="middle" font-size="10" fill="white" font-weight="bold">-1%</text>
<rect x="470" y="227" width="30" height="25" fill="#D9D9D9" rx="3"/>
<text x="486" y="244" text-anchor="middle" font-size="10" fill="white" font-weight="bold">-1%</text>
<rect x="502" y="227" width="30" height="25" fill="#D9D9D9" rx="3"/>
<text x="518" y="244" text-anchor="middle" font-size="10" fill="white" font-weight="bold">-1%</text>
<rect x="534" y="227" width="30" height="25" fill="#D9D9D9" rx="3"/>
<text x="550" y="244" text-anchor="middle" font-size="10" fill="white" font-weight="bold">-1%</text>
<rect x="566" y="227" width="30" height="25" fill="#D9D9D9" rx="3"/>
<text x="582" y="244" text-anchor="middle" font-size="10" fill="white" font-weight="bold">-1%</text>
<rect x="598" y="227" width="30" height="25" fill="#D9D9D9" rx="3"/>
<text x="614" y="244" text-anchor="middle" font-size="10" fill="white" font-weight="bold">-1%</text>
<rect x="630" y="227" width="30" height="25" fill="#D9D9D9" rx="3"/>
<text x="646" y="244" text-anchor="middle" font-size="10" fill="white" font-weight="bold">-1%</text>
<rect x="662" y="227" width="30" height="25" fill="#D9D9D9" rx="3"/>
<text x="678" y="244" text-anchor="middle" font-size="10" fill="white" font-weight="bold">-1%</text>
<rect x="694" y="227" width="30" height="25" fill="#D9D9D9" rx="3"/>
<text x="710" y="244" text-anchor="middle" font-size="10" fill="white" font-weight="bold">-1%</text>
<rect x="726" y="227" width="30" height="25" fill="#D9D9D9" rx="3"/>
<text x="742" y="244" text-anchor="middle" font-size="10" fill="white" font-weight="bold">-1%</text>
<rect x="758" y="227" width="30" height="25" fill="#D9D9D9" rx="3"/>
<text x="774" y="244" text-anchor="middle" font-size="10" fill="white" font-weight="bold">-1%</text>
<rect x="790" y="227" width="30" height="25" fill="#D9D9D9" rx="3"/>
<text x="806" y="244" text-anchor="middle" font-size="10" fill="white" font-weight="bold">-1%</text>
<rect x="822" y="227" width="30" height="25" fill="#D9D9D9" rx="3"/>
<text x="838" y="244" text-anchor="middle" font-size="10" fill="white" font-weight="bold">-1%</text>
<rect x="854" y="227" width="30" height="25" fill="#4E79A7" rx="3"/>
<text x="870" y="244" text-anchor="middle" font-size="10" fill="white" font-weight="bold">100%</text>
<text x="145" y="271" text-anchor="end" font-size="11">shortcuts</text>
<rect x="150" y="254" width="30" height="25" fill="#4E79A7" rx="3"/>
<text x="166" y="271" text-anchor="middle" font-size="10" fill="white" font-weight="bold">100%</text>
<rect x="182" y="254" width="30" height="25" fill="#4E79A7" rx="3"/>
<text x="198" y="271" text-anchor="middle" font-size="10" fill="white" font-weight="bold">100%</text>
<rect x="214" y="254" width="30" height="25" fill="#D9D9D9" rx="3"/>
<text x="230" y="271" text-anchor="middle" font-size="10" fill="white" font-weight="bold">-1%</text>
<rect x="246" y="254" width="30" height="25" fill="#4E79A7" rx="3"/>
<text x="262" y="271" text-anchor="middle" font-size="10" fill="white" font-weight="bold">100%</text>
<rect x="278" y="254" width="30" height="25" fill="#D9D9D9" rx="3"/>
<text x="294" y="271" text-anchor="middle" font-size="10" fill="white" font-weight="bold">-1%</text>
<rect x="310" y="254" width="30" height="25" fill="#D9D9D9" rx="3"/>
<text x="326" y="271" text-anchor="middle" font-size="10" fill="white" font-weight="bold">-1%</text>
<rect x="342" y="254" width="30" height="25" fill="#D9D9D9" rx="3"/>
<text x="358" y="271" text-anchor="middle" font-size="10" fill="white" font-weight="bold">-1%</text>
<rect x="374" y="254" width="30" height="25" fill="#D9D9D9" rx="3"/>
<text x="390" y="271" text-anchor="middle" font-size="10" fill="white" font-weight="bold">-1%</text>
<rect x="406" y="254" width="30" height="25" fill="#D9D9D9" rx="3"/>
<text x="422" y="271" text-anchor="middle" font-size="10" fill="white" font-weight="bold">-1%</text>
<rect x="438" y="254" width="30" height="25" fill="#D9D9D9" rx="3"/>
<text x="454" y="271" text-anchor="middle" font-size="10" fill="white" font-weight="bold">-1%</text>
<rect x="470" y="254" width="30" height="25" fill="#D9D9D9" rx="3"/>
<text x="486" y="271" text-anchor="middle" font-size="10" fill="white" font-weight="bold">-1%</text>
<rect x="502" y="254" width="30" height="25" fill="#D9D9D9" rx="3"/>
<text x="518" y="271" text-anchor="middle" font-size="10" fill="white" font-weight="bold">-1%</text>
<rect x="534" y="254" width="30" height="25" fill="#D9D9D9" rx="3"/>
<text x="550" y="271" text-anchor="middle" font-size="10" fill="white" font-weight="bold">-1%</text>
<rect x="566" y="254" width="30" height="25" fill="#D9D9D9" rx="3"/>
<text x="582" y="271" text-anchor="middle" font-size="10" fill="white" font-weight="bold">-1%</text>
<rect x="598" y="254" width="30" height="25" fill="#D9D9D9" rx="3"/>
<text x="614" y="271" text-anchor="middle" font-size="10" fill="white" font-weight="bold">-1%</text>
<rect x="630" y="254" width="30" height="25" fill="#D9D9D9" rx="3"/>
<text x="646" y="271" text-anchor="middle" font-size="10" fill="white" font-weight="bold">-1%</text>
<rect x="662" y="254" width="30" height="25" fill="#D9D9D9" rx="3"/>
<text x="678" y="271" text-anchor="middle" font-size="10" fill="white" font-weight="bold">-1%</text>
<rect x="694" y="254" width="30" height="25" fill="#D9D9D9" rx="3"/>
<text x="710" y="271" text-anchor="middle" font-size="10" fill="white" font-weight="bold">-1%</text>
<rect x="726" y="254" width="30" height="25" fill="#D9D9D9" rx="3"/>
<text x="742" y="271" text-anchor="middle" font-size="10" fill="white" font-weight="bold">-1%</text>
<rect x="758" y="254" width="30" height="25" fill="#D9D9D9" rx="3"/>
<text x="774" y="271" text-anchor="middle" font-size="10" fill="white" font-weight="bold">-1%</text>
<rect x="790" y="254" width="30" height="25" fill="#D9D9D9" rx="3"/>
<text x="806" y="271" text-anchor="middle" font-size="10" fill="white" font-weight="bold">-1%</text>
<rect x="822" y="254" width="30" height="25" fill="#D9D9D9" rx="3"/>
<text x="838" y="271" text-anchor="middle" font-size="10" fill="white" font-weight="bold">-1%</text>
<rect x="854" y="254" width="30" height="25" fill="#D9D9D9" rx="3"/>
<text x="870" y="271" text-anchor="middle" font-size="10" fill="white" font-weight="bold">-1%</text>
<text x="145" y="298" text-anchor="end" font-size="11">reviews</text>
<rect x="150" y="281" width="30" height="25" fill="#4E79A7" rx="3"/>
<text x="166" y="298" text-anchor="middle" font-size="10" fill="white" font-weight="bold">100%</text>
<rect x="182" y="281" width="30" height="25" fill="#D9D9D9" rx="3"/>
<text x="198" y="298" text-anchor="middle" font-size="10" fill="white" font-weight="bold">-1%</text>
<rect x="214" y="281" width="30" height="25" fill="#D9D9D9" rx="3"/>
<text x="230" y="298" text-anchor="middle" font-size="10" fill="white" font-weight="bold">-1%</text>
<rect x="246" y="281" width="30" height="25" fill="#D9D9D9" rx="3"/>
<text x="262" y="298" text-anchor="middle" font-size="10" fill="white" font-weight="bold">-1%</text>
<rect x="278" y="281" width="30" height="25" fill="#D9D9D9" rx="3"/>
<text x="294" y="298" text-anchor="middle" font-size="10" fill="white" font-weight="bold">-1%</text>
<rect x="310" y="281" width="30" height="25" fill="#D9D9D9" rx="3"/>
<text x="326" y="298" text-anchor="middle" font-size="10" fill="white" font-weight="bold">-1%</text>
<rect x="342" y="281" width="30" height="25" fill="#D9D9D9" rx="3"/>
<text x="358" y="298" text-anchor="middle" font-size="10" fill="white" font-weight="bold">-1%</text>
<rect x="374" y="281" width="30" height="25" fill="#D9D9D9" rx="3"/>
<text x="390" y="298" text-anchor="middle" font-size="10" fill="white" font-weight="bold">-1%</text>
<rect x="406" y="281" width="30" height="25" fill="#D9D9D9" rx="3"/>
<text x="422" y="298" text-anchor="middle" font-size="10" fill="white" font-weight="bold">-1%</text>
<rect x="438" y="281" width="30" height="25" fill="#D9D9D9" rx="3"/>
<text x="454" y="298" text-anchor="middle" font-size="10" fill="white" font-weight="bold">-1%</text>
<rect x="470" y="281" width="30" height="25" fill="#D9D9D9" rx="3"/>
<text x="486" y="298" text-anchor="middle" font-size="10" fill="white" font-weight="bold">-1%</text>
<rect x="502" y="281" width="30" height="25" fill="#D9D9D9" rx="3"/>
<text x="518" y="298" text-anchor="middle" font-size="10" fill="white" font-weight="bold">-1%</text>
<rect x="534" y="281" width="30" height="25" fill="#D9D9D9" rx="3"/>
<text x="550" y="298" text-anchor="middle" font-size="10" fill="white" font-weight="bold">-1%</text>
<rect x="566" y="281" width="30" height="25" fill="#D9D9D9" rx="3"/>
<text x="582" y="298" text-anchor="middle" font-size="10" fill="white" font-weight="bold">-1%</text>
<rect x="598" y="281" width="30" height="25" fill="#D9D9D9" rx="3"/>
<text x="614" y="298" text-anchor="middle" font-size="10" fill="white" font-weight="bold">-1%</text>
<rect x="630" y="281" width="30" height="25" fill="#D9D9D9" rx="3"/>
<text x="646" y="298" text-anchor="middle" font-size="10" fill="white" font-weight="bold">-1%</text>
<rect x="662" y="281" width="30" height="25" fill="#D9D9D9" rx="3"/>
<text x="678" y="298" text-anchor="middle" font-size="10" fill="white" font-weight="bold">-1%</text>
<rect x="694" y="281" width="30" height="25" fill="#D9D9D9" rx="3"/>
<text x="710" y="298" text-anchor="middle" font-size="10" fill="white" font-weight="bold">-1%</text>
<rect x="726" y="281" width="30" height="25" fill="#D9D9D9" rx="3"/>
<text x="742" y="298" text-anchor="middle" font-size="10" fill="white" font-weight="bold">-1%</text>
<rect x="758" y="281" width="30" height="25" fill="#D9D9D9" rx="3"/>
<text x="774" y="298" text-anchor="middle" font-size="10" fill="white" font-weight="bold">-1%</text>
<rect x="790" y="281" width="30" height="25" fill="#D9D9D9" rx="3"/>
<text x="806" y="298" text-anchor="middle" font-size="10" fill="white" font-weight="bold">-1%</text>
<rect x="822" y="281" width="30" height="25" fill="#4E79A7" rx="3"/>
<text x="838" y="298" text-anchor="middle" font-size="10" fill="white" font-weight="bold">100%</text>
<rect x="854" y="281" width="30" height="25" fill="#D9D9D9" rx="3"/>
<text x="870" y="298" text-anchor="middle" font-size="10" fill="white" font-weight="bold">-1%</text>
<text x="145" y="325" text-anchor="end" font-size="11">opinions</text>
<rect x="150" y="308" width="30" height="25" fill="#4E79A7" rx="3"/>
<text x="166" y="325" text-anchor="middle" font-size="10" fill="white" font-weight="bold">100%</text>
<rect x="182" y="308" width="30" height="25" fill="#D9D9D9" rx="3"/>
<text x="198" y="325" text-anchor="middle" font-size="10" fill="white" font-weight="bold">-1%</text>
<rect x="214" y="308" width="30" height="25" fill="#D9D9D9" rx="3"/>
<text x="230" y="325" text-anchor="middle" font-size="10" fill="white" font-weight="bold">-1%</text>
<rect x="246" y="308" width="30" height="25" fill="#D9D9D9" rx="3"/>
<text x="262" y="325" text-anchor="middle" font-size="10" fill="white" font-weight="bold">-1%</text>
<rect x="278" y="308" width="30" height="25" fill="#D9D9D9" rx="3"/>
<text x="294" y="325" text-anchor="middle" font-size="10" fill="white" font-weight="bold">-1%</text>
<rect x="310" y="308" width="30" height="25" fill="#D9D9D9" rx="3"/>
<text x="326" y="325" text-anchor="middle" font-size="10" fill="white" font-weight="bold">-1%</text>
<rect x="342" y="308" width="30" height="25" fill="#D9D9D9" rx="3"/>
<text x="358" y="325" text-anchor="middle" font-size="10" fill="white" font-weight="bold">-1%</text>
<rect x="374" y="308" width="30" height="25" fill="#D9D9D9" rx="3"/>
<text x="390" y="325" text-anchor="middle" font-size="10" fill="white" font-weight="bold">-1%</text>
<rect x="406" y="308" width="30" height="25" fill="#D9D9D9" rx="3"/>
<text x="422" y="325" text-anchor="middle" font-size="10" fill="white" font-weight="bold">-1%</text>
<rect x="438" y="308" width="30" height="25" fill="#D9D9D9" rx="3"/>
<text x="454" y="325" text-anchor="middle" font-size="10" fill="white" font-weight="bold">-1%</text>
<rect x="470" y="308" width="30" height="25" fill="#D9D9D9" rx="3"/>
<text x="486" y="325" text-anchor="middle" font-size="10" fill="white" font-weight="bold">-1%</text>
<rect x="502" y="308" width="30" height="25" fill="#D9D9D9" rx="3"/>
<text x="518" y="325" text-anchor="middle" font-size="10" fill="white" font-weight="bold">-1%</text>
<rect x="534" y="308" width="30" height="25" fill="#D9D9D9" rx="3"/>
<text x="550" y="325" text-anchor="middle" font-size="10" fill="white" font-weight="bold">-1%</text>
<rect x="566" y="308" width="30" height="25" fill="#D9D9D9" rx="3"/>
<text x="582" y="325" text-anchor="middle" font-size="10" fill="white" font-weight="bold">-1%</text>
<rect x="598" y="308" width="30" height="25" fill="#D9D9D9" rx="3"/>
<text x="614" y="325" text-anchor="middle" font-size="10" fill="white" font-weight="bold">-1%</text>
<rect x="630" y="308" width="30" height="25" fill="#D9D9D9" rx="3"/>
<text x="646" y="325" text-anchor="middle" font-size="10" fill="white" font-weight="bold">-1%</text>
<rect x="662" y="308" width="30" height="25" fill="#D9D9D9" rx="3"/>
<text x="678" y="325" text-anchor="middle" font-size="10" fill="white" font-weight="bold">-1%</text>
<rect x="694" y="308" width="30" height="25" fill="#D9D9D9" rx="3"/>
<text x="710" y="325" text-anchor="middle" font-size="10" fill="white" font-weight="bold">-1%</text>
<rect x="726" y="308" width="30" height="25" fill="#D9D9D9" rx="3"/>
<text x="742" y="325" text-anchor="middle" font-size="10" fill="white" font-weight="bold">-1%</text>
<rect x="758" y="308" width="30" height="25" fill="#D9D9D9" rx="3"/>
<text x="774" y="325" text-anchor="middle" font-size="10" fill="white" font-weight="bold">-1%</text>
<rect x="790" y="308" width="30" height="25" fill="#D9D9D9" rx="3"/>
<text x="806" y="325" text-anchor="middle" font-size="10" fill="white" font-weight="bold">-1%</text>
<rect x="822" y="308" width="30" height="25" fill="#D9D9D9" rx="3"/>
<text x="838" y="325" text-anchor="middle" font-size="10" fill="white" font-weight="bold">-1%</text>
<rect x="854" y="308" width="30" height="25" fill="#D9D9D9" rx="3"/>
<text x="870" y="325" text-anchor="middle" font-size="10" fill="white" font-weight="bold">-1%</text>
</svg>