<svg xmlns="http://www.w3.org/2000/svg" width="600" height="396">
<text x="300" y="25" text-anchor="middle" font-size="16" font-weight="bold">数组字段空值率（%）</text>
<text x="215" y="65" text-anchor="end" font-size="12">show_ids</text>
<rect x="220" y="45" width="320.0" height="24" fill="#4E79A7" rx="3"/>
<text x="545.0" y="65" font-size="11">94</text>
<text x="215" y="93" text-anchor="end" font-size="12">shortcut_ids</text>
<rect x="220" y="73" width="320.0" height="24" fill="#F28E2B" rx="3"/>
<text x="545.0" y="93" font-size="11">94</text>
<text x="215" y="121" text-anchor="end" font-size="12">opinion_ids</text>
<rect x="220" y="101" width="292.7659574468085" height="24" fill="#E15759" rx="3"/>
<text x="517.7659574468084" y="121" font-size="11">86</text>
<text x="215" y="149" text-anchor="end" font-size="12">attraction_ids</text>
<rect x="220" y="129" width="268.936170212766" height="24" fill="#76B7B2" rx="3"/>
<text x="493.936170212766" y="149" font-size="11">79</text>
<text x="215" y="177" text-anchor="end" font-size="12">warning_ids</text>
<rect x="220" y="157" width="224.68085106382978" height="24" fill="#59A14F" rx="3"/>
<text x="449.6808510638298" y="177" font-size="11">66</text>
<text x="215" y="205" text-anchor="end" font-size="12">restaurant_ids</text>
<rect x="220" y="185" width="129.36170212765956" height="24" fill="#EDC948" rx="3"/>
<text x="354.36170212765956" y="205" font-size="11">38</text>
<text x="215" y="233" text-anchor="end" font-size="12">highlights</text>
<rect x="220" y="213" width="91.91489361702128" height="24" fill="#B07AA1" rx="3"/>
<text x="316.9148936170213" y="233" font-size="11">27</text>
<text x="215" y="261" text-anchor="end" font-size="12">source_files</text>
<rect x="220" y="241" width="64.68085106382978" height="24" fill="#FF9DA7" rx="3"/>
<text x="289.6808510638298" y="261" font-size="11">19</text>
<text x="215" y="289" text-anchor="end" font-size="12">review_ids</text>
<rect x="220" y="269" width="61.27659574468085" height="24" fill="#9C755F" rx="3"/>
<text x="286.27659574468083" y="289" font-size="11">18</text>
<text x="215" y="317" text-anchor="end" font-size="12">zone_ids</text>
<rect x="220" y="297" width="44.255319148936174" height="24" fill="#BAB0AC" rx="3"/>
<text x="269.25531914893617" y="317" font-size="11">13</text>
<text x="215" y="345" text-anchor="end" font-size="12">recommended_dish_ids</text>
<rect x="220" y="325" width="23.829787234042552" height="24" fill="#4E79A7" rx="3"/>
<text x="248.82978723404256" y="345" font-size="11">7</text>
<text x="215" y="373" text-anchor="end" font-size="12">tags</text>
<rect x="220" y="353" width="3.404255319148936" height="24" fill="#F28E2B" rx="3"/>
<text x="228.40425531914894" y="373" font-size="11">1</text>
</svg>