<svg xmlns="http://www.w3.org/2000/svg" width="500" height="350">
<text x="250" y="25" text-anchor="middle" font-size="16" font-weight="bold">ID 前缀分布</text>
<text x="215" y="65" text-anchor="end" font-size="12">rev</text>
<rect x="220" y="45" width="220.0" height="24" fill="#4E79A7" rx="3"/>
<text x="445.0" y="65" font-size="11">101</text>
<text x="215" y="93" text-anchor="end" font-size="12">dish</text>
<rect x="220" y="73" width="87.12871287128714" height="24" fill="#F28E2B" rx="3"/>
<text x="312.1287128712871" y="93" font-size="11">40</text>
<text x="215" y="121" text-anchor="end" font-size="12">warn</text>
<rect x="220" y="101" width="71.88118811881188" height="24" fill="#E15759" rx="3"/>
<text x="296.8811881188119" y="121" font-size="11">33</text>
<text x="215" y="149" text-anchor="end" font-size="12">op</text>
<rect x="220" y="129" width="52.277227722772274" height="24" fill="#76B7B2" rx="3"/>
<text x="277.2772277227723" y="149" font-size="11">24</text>
<text x="215" y="177" text-anchor="end" font-size="12">attr</text>
<rect x="220" y="157" width="37.02970297029703" height="24" fill="#59A14F" rx="3"/>
<text x="262.029702970297" y="177" font-size="11">17</text>
<text x="215" y="205" text-anchor="end" font-size="12">show</text>
<rect x="220" y="185" width="32.67326732673267" height="24" fill="#EDC948" rx="3"/>
<text x="257.6732673267327" y="205" font-size="11">15</text>
<text x="215" y="233" text-anchor="end" font-size="12">rest</text>
<rect x="220" y="213" width="32.67326732673267" height="24" fill="#B07AA1" rx="3"/>
<text x="257.6732673267327" y="233" font-size="11">15</text>
<text x="215" y="261" text-anchor="end" font-size="12">tip</text>
<rect x="220" y="241" width="30.495049504950497" height="24" fill="#FF9DA7" rx="3"/>
<text x="255.4950495049505" y="261" font-size="11">14</text>
<text x="215" y="289" text-anchor="end" font-size="12">sc</text>
<rect x="220" y="269" width="6.534653465346534" height="24" fill="#9C755F" rx="3"/>
<text x="231.53465346534654" y="289" font-size="11">3</text>
<text x="215" y="317" text-anchor="end" font-size="12">itin</text>
<rect x="220" y="297" width="4.356435643564357" height="24" fill="#BAB0AC" rx="3"/>
<text x="229.35643564356437" y="317" font-size="11">2</text>
</svg>