<svg xmlns="http://www.w3.org/2000/svg" width="500" height="200">
<text x="250" y="25" text-anchor="middle" font-size="16" font-weight="bold">ID 长度分布</text>
<text x="215" y="43" text-anchor="end" font-size="12">7</text>
<rect x="220" y="45" width="6.407766990291262" height="2" fill="#4E79A7" rx="3"/>
<text x="231.40776699029126" y="43" font-size="11">3</text>
<text x="215" y="49" text-anchor="end" font-size="12">10</text>
<rect x="220" y="51" width="6.407766990291262" height="2" fill="#F28E2B" rx="3"/>
<text x="231.40776699029126" y="49" font-size="11">3</text>
<text x="215" y="55" text-anchor="end" font-size="12">11</text>
<rect x="220" y="57" width="220.0" height="2" fill="#E15759" rx="3"/>
<text x="445.0" y="55" font-size="11">103</text>
<text x="215" y="61" text-anchor="end" font-size="12">12</text>
<rect x="220" y="63" width="27.766990291262136" height="2" fill="#76B7B2" rx="3"/>
<text x="252.76699029126215" y="61" font-size="11">13</text>
<text x="215" y="67" text-anchor="end" font-size="12">13</text>
<rect x="220" y="69" width="8.54368932038835" height="2" fill="#59A14F" rx="3"/>
<text x="233.54368932038835" y="67" font-size="11">4</text>
<text x="215" y="73" text-anchor="end" font-size="12">14</text>
<rect x="220" y="75" width="46.99029126213592" height="2" fill="#EDC948" rx="3"/>
<text x="271.99029126213594" y="73" font-size="11">22</text>
<text x="215" y="79" text-anchor="end" font-size="12">15</text>
<rect x="220" y="81" width="14.95145631067961" height="2" fill="#B07AA1" rx="3"/>
<text x="239.95145631067962" y="79" font-size="11">7</text>
<text x="215" y="85" text-anchor="end" font-size="12">16</text>
<rect x="220" y="87" width="38.44660194174757" height="2" fill="#FF9DA7" rx="3"/>
<text x="263.4466019417476" y="85" font-size="11">18</text>
<text x="215" y="91" text-anchor="end" font-size="12">17</text>
<rect x="220" y="93" width="21.359223300970875" height="2" fill="#9C755F" rx="3"/>
<text x="246.35922330097088" y="91" font-size="11">10</text>
<text x="215" y="97" text-anchor="end" font-size="12">18</text>
<rect x="220" y="99" width="27.766990291262136" height="2" fill="#BAB0AC" rx="3"/>
<text x="252.76699029126215" y="97" font-size="11">13</text>
<text x="215" y="103" text-anchor="end" font-size="12">19</text>
<rect x="220" y="105" width="27.766990291262136" height="2" fill="#4E79A7" rx="3"/>
<text x="252.76699029126215" y="103" font-size="11">13</text>
<text x="215" y="109" text-anchor="end" font-size="12">20</text>
<rect x="220" y="111" width="17.0873786407767" height="2" fill="#F28E2B" rx="3"/>
<text x="242.0873786407767" y="109" font-size="11">8</text>
<text x="215" y="115" text-anchor="end" font-size="12">21</text>
<rect x="220" y="117" width="19.223300970873787" height="2" fill="#E15759" rx="3"/>
<text x="244.2233009708738" y="115" font-size="11">9</text>
<text x="215" y="121" text-anchor="end" font-size="12">22</text>
<rect x="220" y="123" width="17.0873786407767" height="2" fill="#76B7B2" rx="3"/>
<text x="242.0873786407767" y="121" font-size="11">8</text>
<text x="215" y="127" text-anchor="end" font-size="12">23</text>
<rect x="220" y="129" width="27.766990291262136" height="2" fill="#59A14F" rx="3"/>
<text x="252.76699029126215" y="127" font-size="11">13</text>
<text x="215" y="133" text-anchor="end" font-size="12">24</text>
<rect x="220" y="135" width="12.815533980582524" height="2" fill="#EDC948" rx="3"/>
<text x="237.81553398058253" y="133" font-size="11">6</text>
<text x="215" y="139" text-anchor="end" font-size="12">25</text>
<rect x="220" y="141" width="8.54368932038835" height="2" fill="#B07AA1" rx="3"/>
<text x="233.54368932038835" y="139" font-size="11">4</text>
<text x="215" y="145" text-anchor="end" font-size="12">26</text>
<rect x="220" y="147" width="4.271844660194175" height="2" fill="#FF9DA7" rx="3"/>
<text x="229.27184466019418" y="145" font-size="11">2</text>
<text x="215" y="151" text-anchor="end" font-size="12">27</text>
<rect x="220" y="153" width="4.271844660194175" height="2" fill="#9C755F" rx="3"/>
<text x="229.27184466019418" y="151" font-size="11">2</text>
<text x="215" y="157" text-anchor="end" font-size="12">28</text>
<rect x="220" y="159" width="2.1359223300970873" height="2" fill="#BAB0AC" rx="3"/>
<text x="227.1359223300971" y="157" font-size="11">1</text>
<text x="215" y="163" text-anchor="end" font-size="12">29</text>
<rect x="220" y="165" width="2.1359223300970873" height="2" fill="#4E79A7" rx="3"/>
<text x="227.1359223300971" y="163" font-size="11">1</text>
<text x="215" y="169" text-anchor="end" font-size="12">30</text>
<rect x="220" y="171" width="2.1359223300970873" height="2" fill="#F28E2B" rx="3"/>
<text x="227.1359223300971" y="169" font-size="11">1</text>
</svg>