<svg xmlns="http://www.w3.org/2000/svg" width="600" height="560">
<text x="300" y="25" text-anchor="middle" font-size="16" font-weight="bold">å¼•ē”Øå­—ę®µå¹³å¯‡å¼•ē”Øę•°</text>
<text x="215" y="62" text-anchor="end" font-size="12">restaurants.recommended_dish_idsā†’dishes</text>
<rect x="220" y="45" width="320.0" height="21" fill="#4E79A7" rx="3"/>
<text x="545.0" y="62" font-size="11">2.5</text>
<text x="215" y="87" text-anchor="end" font-size="12">attractions.review_idsā†’reviews</text>
<rect x="220" y="70" width="281.6" height="21" fill="#F28E2B" rx="3"/>
<text x="506.6" y="87" font-size="11">2.2</text>
<text x="215" y="112" text-anchor="end" font-size="12">dishes.review_idsā†’reviews</text>
<rect x="220" y="95" width="153.6" height="21" fill="#E15759" rx="3"/>
<text x="378.6" y="112" font-size="11">1.2</text>
<text x="215" y="137" text-anchor="end" font-size="12">dishes.restaurant_idsā†’restaurants</text>
<rect x="220" y="120" width="140.8" height="21" fill="#76B7B2" rx="3"/>
<text x="365.8" y="137" font-size="11">1.1</text>
<text x="215" y="162" text-anchor="end" font-size="12">reviews.target_idā†’target</text>
<rect x="220" y="145" width="128.0" height="21" fill="#59A14F" rx="3"/>
<text x="353.0" y="162" font-size="11">1.0</text>
<text x="215" y="187" text-anchor="end" font-size="12">opinions.target_idā†’target</text>
<rect x="220" y="170" width="128.0" height="21" fill="#EDC948" rx="3"/>
<text x="353.0" y="187" font-size="11">1.0</text>
<text x="215" y="212" text-anchor="end" font-size="12">restaurants.review_idsā†’reviews</text>
<rect x="220" y="195" width="115.19999999999999" height="21" fill="#B07AA1" rx="3"/>
<text x="340.2" y="212" font-size="11">0.9</text>
<text x="215" y="237" text-anchor="end" font-size="12">attractions.warning_idsā†’warnings</text>
<rect x="220" y="220" width="64.0" height="21" fill="#FF9DA7" rx="3"/>
<text x="289.0" y="237" font-size="11">0.5</text>
<text x="215" y="262" text-anchor="end" font-size="12">restaurants.warning_idsā†’warnings</text>
<rect x="220" y="245" width="64.0" height="21" fill="#9C755F" rx="3"/>
<text x="289.0" y="262" font-size="11">0.5</text>
<text x="215" y="287" text-anchor="end" font-size="12">shows.opinion_idsā†’opinions</text>
<rect x="220" y="270" width="51.2" height="21" fill="#BAB0AC" rx="3"/>
<text x="276.2" y="287" font-size="11">0.4</text>
<text x="215" y="312" text-anchor="end" font-size="12">restaurants.opinion_idsā†’opinions</text>
<rect x="220" y="295" width="38.4" height="21" fill="#4E79A7" rx="3"/>
<text x="263.4" y="312" font-size="11">0.3</text>
<text x="215" y="337" text-anchor="end" font-size="12">tips.opinion_idsā†’opinions</text>
<rect x="220" y="320" width="38.4" height="21" fill="#F28E2B" rx="3"/>
<text x="263.4" y="337" font-size="11">0.3</text>
<text x="215" y="362" text-anchor="end" font-size="12">attractions.opinion_idsā†’opinions</text>
<rect x="220" y="345" width="25.6" height="21" fill="#E15759" rx="3"/>
<text x="250.6" y="362" font-size="11">0.2</text>
<text x="215" y="387" text-anchor="end" font-size="12">tips.attraction_idsā†’attractions</text>
<rect x="220" y="370" width="25.6" height="21" fill="#76B7B2" rx="3"/>
<text x="250.6" y="387" font-size="11">0.2</text>
<text x="215" y="412" text-anchor="end" font-size="12">warnings.attraction_idsā†’attractions</text>
<rect x="220" y="395" width="25.6" height="21" fill="#59A14F" rx="3"/>
<text x="250.6" y="412" font-size="11">0.2</text>
<text x="215" y="437" text-anchor="end" font-size="12">warnings.restaurant_idsā†’restaurants</text>
<rect x="220" y="420" width="25.6" height="21" fill="#EDC948" rx="3"/>
<text x="250.6" y="437" font-size="11">0.2</text>
<text x="215" y="462" text-anchor="end" font-size="12">shows.warning_idsā†’warnings</text>
<rect x="220" y="445" width="12.8" height="21" fill="#B07AA1" rx="3"/>
<text x="237.8" y="462" font-size="11">0.1</text>
<text x="215" y="487" text-anchor="end" font-size="12">dishes.opinion_idsā†’opinions</text>
<rect x="220" y="470" width="12.8" height="21" fill="#FF9DA7" rx="3"/>
<text x="237.8" y="487" font-size="11">0.1</text>
<text x="215" y="512" text-anchor="end" font-size="12">warnings.show_idsā†’shows</text>
<rect x="220" y="495" width="12.8" height="21" fill="#9C755F" rx="3"/>
<text x="237.8" y="512" font-size="11">0.1</text>
<text x="215" y="537" text-anchor="end" font-size="12">warnings.shortcut_idsā†’shortcuts</text>
<rect x="220" y="520" width="12.8" height="21" fill="#BAB0AC" rx="3"/>
<text x="237.8" y="537" font-size="11">0.1</text>
</svg>