<svg xmlns="http://www.w3.org/2000/svg" width="500" height="320">
<text x="250" y="25" text-anchor="middle" font-size="16" font-weight="bold">各实体 JSON 大小 (KB)</text>
<text x="215" y="63" text-anchor="end" font-size="12">attractions</text>
<rect x="220" y="45" width="156.42201834862385" height="22" fill="#4E79A7" rx="3"/>
<text x="381.42201834862385" y="63" font-size="11">15.5</text>
<text x="215" y="89" text-anchor="end" font-size="12">shows</text>
<rect x="220" y="71" width="125.13761467889908" height="22" fill="#F28E2B" rx="3"/>
<text x="350.13761467889907" y="89" font-size="11">12.4</text>
<text x="215" y="115" text-anchor="end" font-size="12">restaurants</text>
<rect x="220" y="97" width="65.59633027522935" height="22" fill="#E15759" rx="3"/>
<text x="290.5963302752293" y="115" font-size="11">6.5</text>
<text x="215" y="141" text-anchor="end" font-size="12">dishes</text>
<rect x="220" y="123" width="138.25688073394494" height="22" fill="#76B7B2" rx="3"/>
<text x="363.25688073394497" y="141" font-size="11">13.7</text>
<text x="215" y="167" text-anchor="end" font-size="12">tips</text>
<rect x="220" y="149" width="52.477064220183486" height="22" fill="#59A14F" rx="3"/>
<text x="277.4770642201835" y="167" font-size="11">5.2</text>
<text x="215" y="193" text-anchor="end" font-size="12">warnings</text>
<rect x="220" y="175" width="134.22018348623854" height="22" fill="#EDC948" rx="3"/>
<text x="359.2201834862385" y="193" font-size="11">13.3</text>
<text x="215" y="219" text-anchor="end" font-size="12">itineraries</text>
<rect x="220" y="201" width="52.477064220183486" height="22" fill="#B07AA1" rx="3"/>
<text x="277.4770642201835" y="219" font-size="11">5.2</text>
<text x="215" y="245" text-anchor="end" font-size="12">shortcuts</text>
<rect x="220" y="227" width="11.100917431192661" height="22" fill="#FF9DA7" rx="3"/>
<text x="236.10091743119267" y="245" font-size="11">1.1</text>
<text x="215" y="271" text-anchor="end" font-size="12">reviews</text>
<rect x="220" y="253" width="220.0" height="22" fill="#9C755F" rx="3"/>
<text x="445.0" y="271" font-size="11">21.8</text>
<text x="215" y="297" text-anchor="end" font-size="12">opinions</text>
<rect x="220" y="279" width="64.58715596330276" height="22" fill="#BAB0AC" rx="3"/>
<text x="289.58715596330273" y="297" font-size="11">6.4</text>
</svg>